<svg width="99" height="19" viewBox="0 0 99 19" fill="none" xmlns="http://www.w3.org/2000/svg">
<path d="M9.53538 18.4414C12.3265 18.4414 14.1706 17.619 15.7406 16.2483C16.0895 15.9493 16.3886 15.4758 16.3886 14.8777C16.3886 13.9058 15.5662 13.1083 14.5943 13.1083C14.1457 13.1083 13.747 13.2828 13.4479 13.532C12.3514 14.4042 11.2798 14.9026 9.65998 14.9026C6.6695 14.9026 4.60109 12.4106 4.60109 9.42008V9.37024C4.60109 6.37976 6.71935 3.93754 9.65998 3.93754C11.0306 3.93754 12.152 4.38611 13.2236 5.18357C13.4978 5.35801 13.8467 5.55738 14.37 5.55738C15.4167 5.55738 16.264 4.735 16.264 3.68833C16.264 3.01547 15.9151 2.46722 15.5163 2.16817C14.0709 1.09658 12.3016 0.398804 9.6849 0.398804C4.32696 0.398804 0.588867 4.46087 0.588867 9.42008V9.46992C0.588867 14.479 4.40173 18.4414 9.53538 18.4414Z" fill="#828282"/>
<path fill-rule="evenodd" clip-rule="evenodd" d="M33.16 11.4885C33.16 15.3263 30.0699 18.4414 25.9081 18.4414C21.7713 18.4414 18.7061 15.3761 18.7061 11.5383V11.4885C18.7061 7.65073 21.7962 4.53564 25.958 4.53564C30.0948 4.53564 33.16 7.60088 33.16 11.4387V11.4885ZM22.4442 11.4885C22.4442 13.4572 23.8646 15.1768 25.958 15.1768C28.1261 15.1768 29.4219 13.5071 29.4219 11.5383V11.4885C29.4219 9.51977 28.0015 7.80025 25.9081 7.80025C23.74 7.80025 22.4442 9.46993 22.4442 11.4387V11.4885Z" fill="#828282"/>
<path d="M35.9014 16.3979C35.9014 17.4445 36.7487 18.2918 37.7953 18.2918C38.842 18.2918 39.6893 17.4445 39.6893 16.3979V10.691C39.6893 8.89676 40.6114 7.97469 42.0568 7.97469C43.5022 7.97469 44.3495 8.89676 44.3495 10.691V16.3979C44.3495 17.4445 45.1968 18.2918 46.2434 18.2918C47.2901 18.2918 48.1374 17.4445 48.1374 16.3979V9.49485C48.1374 6.42961 46.4677 4.53564 43.6018 4.53564C41.683 4.53564 40.5615 5.55739 39.6893 6.67882V6.5293C39.6893 5.48263 38.842 4.63533 37.7953 4.63533C36.7487 4.63533 35.9014 5.48263 35.9014 6.5293V16.3979Z" fill="#828282"/>
<path d="M55.9377 18.3666C56.7601 18.3666 57.408 18.2669 58.1058 17.9928C58.6292 17.7934 59.0777 17.2452 59.0777 16.5723C59.0777 15.7001 58.355 15.0023 57.5077 15.0023C57.433 15.0023 57.1838 15.0272 57.0592 15.0272C56.2119 15.0272 55.838 14.6036 55.838 13.7314V8.02453H57.5077C58.4049 8.02453 59.1276 7.30183 59.1276 6.40469C59.1276 5.50754 58.4049 4.78484 57.5077 4.78484H55.838V3.11516C55.838 2.06849 54.9907 1.22119 53.9441 1.22119C52.8974 1.22119 52.0501 2.06849 52.0501 3.11516V4.78484H51.9255C51.0284 4.78484 50.3057 5.50754 50.3057 6.40469C50.3057 7.30183 51.0284 8.02453 51.9255 8.02453H52.0501V14.3544C52.0501 17.4445 53.6201 18.3666 55.9377 18.3666Z" fill="#828282"/>
<path fill-rule="evenodd" clip-rule="evenodd" d="M69.5942 16.697C68.6722 17.7187 67.4012 18.3916 65.5571 18.3916C63.0401 18.3916 60.9717 16.9462 60.9717 14.3046V14.2547C60.9717 11.339 63.1896 9.99331 66.3545 9.99331C67.7003 9.99331 68.6722 10.2176 69.6191 10.5416V10.3173C69.6191 8.74728 68.6472 7.87506 66.7533 7.87506C65.7066 7.87506 64.8593 8.02458 64.1366 8.24887C63.9123 8.32363 63.7628 8.34855 63.5883 8.34855C62.7161 8.34855 62.0183 7.67569 62.0183 6.80347C62.0183 6.13061 62.442 5.55744 63.0401 5.33315C64.2363 4.88458 65.5322 4.63538 67.3015 4.63538C69.3699 4.63538 70.8652 5.18363 71.8122 6.13061C72.809 7.12744 73.2576 8.59776 73.2576 10.392V16.4727C73.2576 17.4944 72.4352 18.2919 71.4134 18.2919C70.3169 18.2919 69.5942 17.5193 69.5942 16.7219V16.697ZM64.635 14.1551C64.635 15.1768 65.4823 15.7749 66.7034 15.7749C68.4728 15.7749 69.669 14.803 69.669 13.4324V12.7595C69.021 12.4605 68.1737 12.2611 67.2517 12.2611C65.6318 12.2611 64.635 12.909 64.635 14.1052V14.1551Z" fill="#828282"/>
<path d="M82.8269 18.4414C85.0199 18.4414 86.4404 17.7436 87.5618 16.7218C87.8858 16.4228 88.1101 16.0241 88.1101 15.5256C88.1101 14.6285 87.4123 13.9058 86.5151 13.9058C86.0666 13.9058 85.6928 14.1052 85.4934 14.2547C84.7707 14.8279 83.9982 15.1768 83.0013 15.1768C80.9329 15.1768 79.6121 13.532 79.6121 11.4885V11.4387C79.6121 9.46993 80.9578 7.80025 82.8518 7.80025C83.8486 7.80025 84.5464 8.12422 85.2193 8.64755C85.4436 8.822 85.8174 9.02136 86.3158 9.02136C87.2628 9.02136 88.0353 8.27374 88.0353 7.32676C88.0353 6.67882 87.6864 6.23025 87.4372 6.03088C86.3158 5.0839 84.8953 4.53564 82.8767 4.53564C78.7897 4.53564 75.874 7.67565 75.874 11.4885V11.5383C75.874 15.3512 78.8147 18.4414 82.8269 18.4414Z" fill="#828282"/>
<path d="M95.2619 18.3666C96.0843 18.3666 96.7323 18.2669 97.43 17.9928C97.9534 17.7934 98.4019 17.2452 98.4019 16.5723C98.4019 15.7001 97.6793 15.0023 96.8319 15.0023C96.7572 15.0023 96.508 15.0272 96.3834 15.0272C95.5361 15.0272 95.1623 14.6036 95.1623 13.7314V8.02453H96.8319C97.7291 8.02453 98.4518 7.30183 98.4518 6.40469C98.4518 5.50754 97.7291 4.78484 96.8319 4.78484H95.1623V3.11516C95.1623 2.06849 94.315 1.22119 93.2683 1.22119C92.2216 1.22119 91.3743 2.06849 91.3743 3.11516V4.78484H91.2497C90.3526 4.78484 89.6299 5.50754 89.6299 6.40469C89.6299 7.30183 90.3526 8.02453 91.2497 8.02453H91.3743V14.3544C91.3743 17.4445 92.9443 18.3666 95.2619 18.3666Z" fill="#828282"/>
</svg>
