<?xml version="1.0" encoding="UTF-8"?>
<svg width="169px" height="19px" viewBox="0 0 169 19" version="1.1" xmlns="http://www.w3.org/2000/svg" xmlns:xlink="http://www.w3.org/1999/xlink">
    <title>Get Early Access</title>
    <g id="Page-1" stroke="none" stroke-width="1" fill="none" fill-rule="evenodd">
        <g id="Ultra-Wide-Monitors-/-Large-Screens-|-Part-1" transform="translate(-881, -706)" fill="#FFFFFF" fill-rule="nonzero">
            <g id="Get-the-App-Button" transform="translate(824, 683.024)">
                <g id="Get-Early-Access" transform="translate(57.3472, 23.256)">
                    <path d="M7.36,14.96 C9.46,14.96 11.12,14.26 12.26,13.56 C13,13.12 13.34,12.5 13.34,11.6 L13.34,8.2 C13.34,7.34 12.66,6.66 11.8,6.66 L8.28,6.66 C7.54,6.66 6.94,7.26 6.94,8 C6.94,8.74 7.54,9.32 8.28,9.32 L10.36,9.32 L10.36,11.32 C9.58,11.88 8.58,12.16 7.46,12.16 C4.98,12.16 3.22,10.28 3.22,7.72 L3.22,7.68 C3.22,5.3 5,3.32 7.24,3.32 C8.56,3.32 9.46,3.68 10.3,4.28 C10.52,4.44 10.8,4.6 11.24,4.6 C12.08,4.6 12.76,3.92 12.76,3.08 C12.76,2.48 12.42,2.06 12.12,1.84 C10.86,0.96 9.46,0.48 7.34,0.48 C3.1,0.48 0,3.74 0,7.72 L0,7.76 C0,11.9 3,14.96 7.36,14.96 Z" id="Path"></path>
                    <path d="M18.44,8.52 C18.68,7.14 19.5,6.24 20.76,6.24 C22.04,6.24 22.84,7.16 23.02,8.52 L18.44,8.52 Z M24.78,13.66 C25,13.46 25.18,13.16 25.18,12.76 C25.18,12.08 24.68,11.56 24,11.56 C23.68,11.56 23.48,11.64 23.26,11.8 C22.64,12.26 21.94,12.52 21.1,12.52 C19.74,12.52 18.78,11.8 18.48,10.42 L24.5,10.42 C25.3,10.42 25.92,9.84 25.92,8.96 C25.92,6.74 24.34,3.8 20.76,3.8 C17.64,3.8 15.46,6.32 15.46,9.38 L15.46,9.42 C15.46,12.7 17.84,14.96 21.06,14.96 C22.62,14.96 23.84,14.46 24.78,13.66 Z" id="Shape"></path>
                    <path d="M31.86,14.9 C32.52,14.9 33.04,14.82 33.6,14.6 C34.02,14.44 34.38,14 34.38,13.46 C34.38,12.76 33.8,12.2 33.12,12.2 C33.06,12.2 32.86,12.22 32.76,12.22 C32.08,12.22 31.78,11.88 31.78,11.18 L31.78,6.6 L33.12,6.6 C33.84,6.6 34.42,6.02 34.42,5.3 C34.42,4.58 33.84,4 33.12,4 L31.78,4 L31.78,2.66 C31.78,1.82 31.1,1.14 30.26,1.14 C29.42,1.14 28.74,1.82 28.74,2.66 L28.74,4 L28.64,4 C27.92,4 27.34,4.58 27.34,5.3 C27.34,6.02 27.92,6.6 28.64,6.6 L28.74,6.6 L28.74,11.68 C28.74,14.16 30,14.9 31.86,14.9 Z" id="Path"></path>
                    <path d="M44.4,14.72 L52.26,14.72 C53.02,14.72 53.64,14.12 53.64,13.36 C53.64,12.6 53.02,11.98 52.26,11.98 L45.92,11.98 L45.92,9.04 L51.26,9.04 C52.02,9.04 52.64,8.44 52.64,7.68 C52.64,6.92 52.02,6.3 51.26,6.3 L45.92,6.3 L45.92,3.46 L52.16,3.46 C52.92,3.46 53.54,2.86 53.54,2.1 C53.54,1.34 52.92,0.72 52.16,0.72 L44.4,0.72 C43.54,0.72 42.86,1.4 42.86,2.26 L42.86,13.18 C42.86,14.04 43.54,14.72 44.4,14.72 Z" id="Path"></path>
                    <path d="M58.98,14.92 C60.46,14.92 61.48,14.38 62.22,13.56 L62.22,13.58 C62.22,14.22 62.8,14.84 63.68,14.84 C64.5,14.84 65.16,14.2 65.16,13.38 L65.16,8.5 C65.16,7.06 64.8,5.88 64,5.08 C63.24,4.32 62.04,3.88 60.38,3.88 C58.96,3.88 57.92,4.08 56.96,4.44 C56.48,4.62 56.14,5.08 56.14,5.62 C56.14,6.32 56.7,6.86 57.4,6.86 C57.54,6.86 57.66,6.84 57.84,6.78 C58.42,6.6 59.1,6.48 59.94,6.48 C61.46,6.48 62.24,7.18 62.24,8.44 L62.24,8.62 C61.48,8.36 60.7,8.18 59.62,8.18 C57.08,8.18 55.3,9.26 55.3,11.6 L55.3,11.64 C55.3,13.76 56.96,14.92 58.98,14.92 Z M59.9,12.82 C58.92,12.82 58.24,12.34 58.24,11.52 L58.24,11.48 C58.24,10.52 59.04,10 60.34,10 C61.08,10 61.76,10.16 62.28,10.4 L62.28,10.94 C62.28,12.04 61.32,12.82 59.9,12.82 Z" id="Shape"></path>
                    <path d="M67.78,13.32 C67.78,14.16 68.46,14.84 69.3,14.84 C70.14,14.84 70.82,14.16 70.82,13.32 L70.82,10.48 C70.82,8.32 71.68,7.14 73.22,6.78 C73.84,6.64 74.36,6.16 74.36,5.36 C74.36,4.5 73.82,3.88 72.88,3.88 C71.98,3.88 71.26,4.84 70.82,5.88 L70.82,5.4 C70.82,4.56 70.14,3.88 69.3,3.88 C68.46,3.88 67.78,4.56 67.78,5.4 L67.78,13.32 Z" id="Path"></path>
                    <path d="M76.28,13.32 C76.28,14.16 76.96,14.84 77.8,14.84 C78.64,14.84 79.32,14.16 79.32,13.32 L79.32,1.52 C79.32,0.68 78.64,0 77.8,0 C76.96,0 76.28,0.68 76.28,1.52 L76.28,13.32 Z" id="Path"></path>
                    <path d="M84.4,17.98 C86.22,17.98 87.12,17.16 88.02,14.98 L91.76,6 C91.82,5.86 91.9,5.52 91.9,5.28 C91.9,4.48 91.24,3.88 90.46,3.88 C89.68,3.88 89.24,4.4 89,5.04 L86.76,11.26 L84.44,5.02 C84.18,4.3 83.74,3.88 82.98,3.88 C82.14,3.88 81.48,4.48 81.48,5.34 C81.48,5.54 81.56,5.84 81.64,6.04 L85.3,14.52 L85.2,14.76 C84.92,15.3 84.66,15.4 84.12,15.4 C83.9,15.4 83.74,15.36 83.48,15.28 C83.36,15.24 83.22,15.2 82.98,15.2 C82.36,15.2 81.78,15.7 81.78,16.44 C81.78,17.18 82.3,17.54 82.74,17.7 C83.24,17.88 83.72,17.98 84.4,17.98 Z" id="Path"></path>
                    <path d="M99.26,13.4 C99.26,14.2 99.88,14.84 100.68,14.84 C101.32,14.84 101.84,14.48 102.1,13.88 L103.08,11.58 L109.24,11.58 L110.18,13.78 C110.46,14.42 110.94,14.84 111.66,14.84 C112.48,14.84 113.12,14.18 113.12,13.36 C113.12,13.16 113.06,12.96 112.96,12.74 L108.08,1.72 C107.74,0.96 107.14,0.5 106.3,0.5 L106.12,0.5 C105.28,0.5 104.66,0.96 104.32,1.72 L99.44,12.74 C99.34,12.96 99.26,13.18 99.26,13.4 Z M104.22,8.86 L106.16,4.24 L108.1,8.86 L104.22,8.86 Z" id="Shape"></path>
                    <path d="M120.28,14.96 C122.04,14.96 123.18,14.4 124.08,13.58 C124.34,13.34 124.52,13.02 124.52,12.62 C124.52,11.9 123.96,11.32 123.24,11.32 C122.88,11.32 122.58,11.48 122.42,11.6 C121.84,12.06 121.22,12.34 120.42,12.34 C118.76,12.34 117.7,11.02 117.7,9.38 L117.7,9.34 C117.7,7.76 118.78,6.42 120.3,6.42 C121.1,6.42 121.66,6.68 122.2,7.1 C122.38,7.24 122.68,7.4 123.08,7.4 C123.84,7.4 124.46,6.8 124.46,6.04 C124.46,5.52 124.18,5.16 123.98,5 C123.08,4.24 121.94,3.8 120.32,3.8 C117.04,3.8 114.7,6.32 114.7,9.38 L114.7,9.42 C114.7,12.48 117.06,14.96 120.28,14.96 Z" id="Path"></path>
                    <path d="M131.7,14.96 C133.46,14.96 134.6,14.4 135.5,13.58 C135.76,13.34 135.94,13.02 135.94,12.62 C135.94,11.9 135.38,11.32 134.66,11.32 C134.3,11.32 134,11.48 133.84,11.6 C133.26,12.06 132.64,12.34 131.84,12.34 C130.18,12.34 129.12,11.02 129.12,9.38 L129.12,9.34 C129.12,7.76 130.2,6.42 131.72,6.42 C132.52,6.42 133.08,6.68 133.62,7.1 C133.8,7.24 134.1,7.4 134.5,7.4 C135.26,7.4 135.88,6.8 135.88,6.04 C135.88,5.52 135.6,5.16 135.4,5 C134.5,4.24 133.36,3.8 131.74,3.8 C128.46,3.8 126.12,6.32 126.12,9.38 L126.12,9.42 C126.12,12.48 128.48,14.96 131.7,14.96 Z" id="Path"></path>
                    <path d="M140.52,8.52 C140.76,7.14 141.58,6.24 142.84,6.24 C144.12,6.24 144.92,7.16 145.1,8.52 L140.52,8.52 Z M146.86,13.66 C147.08,13.46 147.26,13.16 147.26,12.76 C147.26,12.08 146.76,11.56 146.08,11.56 C145.76,11.56 145.56,11.64 145.34,11.8 C144.72,12.26 144.02,12.52 143.18,12.52 C141.82,12.52 140.86,11.8 140.56,10.42 L146.58,10.42 C147.38,10.42 148,9.84 148,8.96 C148,6.74 146.42,3.8 142.84,3.8 C139.72,3.8 137.54,6.32 137.54,9.38 L137.54,9.42 C137.54,12.7 139.92,14.96 143.14,14.96 C144.7,14.96 145.92,14.46 146.86,13.66 Z" id="Shape"></path>
                    <path d="M154.08,14.92 C156.4,14.92 158.18,13.84 158.18,11.46 L158.18,11.42 C158.18,9.46 156.44,8.74 154.94,8.24 C153.78,7.84 152.76,7.56 152.76,6.96 L152.76,6.92 C152.76,6.5 153.14,6.18 153.88,6.18 C154.52,6.18 155.34,6.44 156.2,6.86 C156.4,6.96 156.54,7 156.76,7 C157.44,7 157.98,6.48 157.98,5.8 C157.98,5.28 157.7,4.88 157.26,4.66 C156.22,4.14 155.06,3.84 153.94,3.84 C151.78,3.84 150.02,5.06 150.02,7.24 L150.02,7.28 C150.02,9.36 151.72,10.06 153.22,10.5 C154.4,10.86 155.44,11.08 155.44,11.74 L155.44,11.78 C155.44,12.26 155.04,12.58 154.16,12.58 C153.3,12.58 152.28,12.26 151.26,11.62 C151.1,11.52 150.88,11.46 150.66,11.46 C149.98,11.46 149.46,11.98 149.46,12.66 C149.46,13.14 149.72,13.5 150.04,13.7 C151.34,14.54 152.76,14.92 154.08,14.92 Z" id="Path"></path>
                    <path d="M164.12,14.92 C166.44,14.92 168.22,13.84 168.22,11.46 L168.22,11.42 C168.22,9.46 166.48,8.74 164.98,8.24 C163.82,7.84 162.8,7.56 162.8,6.96 L162.8,6.92 C162.8,6.5 163.18,6.18 163.92,6.18 C164.56,6.18 165.38,6.44 166.24,6.86 C166.44,6.96 166.58,7 166.8,7 C167.48,7 168.02,6.48 168.02,5.8 C168.02,5.28 167.74,4.88 167.3,4.66 C166.26,4.14 165.1,3.84 163.98,3.84 C161.82,3.84 160.06,5.06 160.06,7.24 L160.06,7.28 C160.06,9.36 161.76,10.06 163.26,10.5 C164.44,10.86 165.48,11.08 165.48,11.74 L165.48,11.78 C165.48,12.26 165.08,12.58 164.2,12.58 C163.34,12.58 162.32,12.26 161.3,11.62 C161.14,11.52 160.92,11.46 160.7,11.46 C160.02,11.46 159.5,11.98 159.5,12.66 C159.5,13.14 159.76,13.5 160.08,13.7 C161.38,14.54 162.8,14.92 164.12,14.92 Z" id="Path"></path>
                </g>
            </g>
        </g>
    </g>
</svg>