<svg width="90" height="24" viewBox="0 0 90 24" fill="none" xmlns="http://www.w3.org/2000/svg">
<path fill-rule="evenodd" clip-rule="evenodd" d="M1.91401 19.2919C0.842419 19.2919 -0.00488281 18.4445 -0.00488281 17.373V3.61677C-0.00488281 2.54518 0.842419 1.69788 1.91401 1.69788H7.12242C11.2842 1.69788 13.8012 4.16502 13.8012 7.72867V7.77851C13.8012 11.8157 10.6612 13.909 6.74861 13.909H3.8329V17.373C3.8329 18.4445 2.98559 19.2919 1.91401 19.2919ZM3.8329 5.16185V10.4949H6.87322C8.7921 10.4949 9.91353 9.34851 9.91353 7.85328V7.80343C9.91353 6.08391 8.71734 5.16185 6.79845 5.16185H3.8329Z" fill="#828282"/>
<path d="M16.2432 17.3979C16.2432 18.4446 17.0905 19.2919 18.1371 19.2919C19.1838 19.2919 20.0311 18.4446 20.0311 17.3979V13.8592C20.0311 11.1678 21.1027 9.69744 23.0216 9.24887C23.7941 9.07442 24.4421 8.47633 24.4421 7.4795C24.4421 6.40792 23.7692 5.63538 22.5979 5.63538C21.4765 5.63538 20.5794 6.83157 20.0311 8.12744V7.52935C20.0311 6.48268 19.1838 5.63538 18.1371 5.63538C17.0905 5.63538 16.2432 6.48268 16.2432 7.52935V17.3979Z" fill="#828282"/>
<path fill-rule="evenodd" clip-rule="evenodd" d="M28.7286 4.43918C27.5324 4.43918 26.6104 3.7414 26.6104 2.64489V2.59505C26.6104 1.49854 27.5324 0.825684 28.7286 0.825684C29.9248 0.825684 30.8469 1.49854 30.8469 2.59505V2.64489C30.8469 3.7414 29.9248 4.43918 28.7286 4.43918ZM28.7286 19.2919C27.6819 19.2919 26.8346 18.4446 26.8346 17.3979V7.52934C26.8346 6.48267 27.6819 5.63537 28.7286 5.63537C29.7753 5.63537 30.6226 6.48267 30.6226 7.52934V17.3979C30.6226 18.4446 29.7753 19.2919 28.7286 19.2919Z" fill="#828282"/>
<path d="M42.0611 17.7717L46.1481 8.32681C46.2229 8.15236 46.3475 7.75363 46.3475 7.42966C46.3475 6.40792 45.5251 5.63538 44.5283 5.63538C43.5314 5.63538 43.0081 6.28331 42.7589 6.93125L39.8432 14.7314L36.9773 6.98109C36.7032 6.20855 36.1549 5.63538 35.1332 5.63538C34.1114 5.63538 33.2891 6.5076 33.2891 7.40474C33.2891 7.75363 33.3887 8.0776 33.4884 8.32681L37.5754 17.7717C37.9991 18.7686 38.6968 19.4165 39.7186 19.4165H39.918C40.9397 19.4165 41.6375 18.7436 42.0611 17.7717Z" fill="#828282"/>
<path fill-rule="evenodd" clip-rule="evenodd" d="M56.6645 17.697C55.7425 18.7187 54.4715 19.3916 52.6274 19.3916C50.1104 19.3916 48.042 17.9462 48.042 15.3046V15.2547C48.042 12.339 50.2599 10.9933 53.4249 10.9933C54.7706 10.9933 55.7425 11.2176 56.6895 11.5416V11.3173C56.6895 9.74728 55.7176 8.87506 53.8236 8.87506C52.7769 8.87506 51.9296 9.02458 51.2069 9.24887C50.9826 9.32363 50.8331 9.34855 50.6587 9.34855C49.7864 9.34855 49.0887 8.67569 49.0887 7.80347C49.0887 7.13061 49.5123 6.55744 50.1104 6.33315C51.3066 5.88458 52.6025 5.63538 54.3718 5.63538C56.4402 5.63538 57.9355 6.18363 58.8825 7.13061C59.8793 8.12744 60.3279 9.59776 60.3279 11.392V17.4727C60.3279 18.4944 59.5055 19.2919 58.4837 19.2919C57.3872 19.2919 56.6645 18.5193 56.6645 17.7219V17.697ZM51.7053 15.1551C51.7053 16.1768 52.5526 16.7749 53.7737 16.7749C55.5431 16.7749 56.7393 15.803 56.7393 14.4324V13.7595C56.0914 13.4605 55.2441 13.2611 54.322 13.2611C52.7022 13.2611 51.7053 13.909 51.7053 15.1052V15.1551Z" fill="#828282"/>
<path d="M69.8982 19.4414C72.0912 19.4414 73.5117 18.7436 74.6331 17.7218C74.9571 17.4228 75.1813 17.0241 75.1813 16.5256C75.1813 15.6285 74.4836 14.9058 73.5864 14.9058C73.1379 14.9058 72.764 15.1052 72.5647 15.2547C71.842 15.8279 71.0694 16.1768 70.0726 16.1768C68.0042 16.1768 66.6834 14.532 66.6834 12.4885V12.4387C66.6834 10.4699 68.0291 8.80025 69.9231 8.80025C70.9199 8.80025 71.6177 9.12422 72.2906 9.64755C72.5148 9.822 72.8887 10.0214 73.3871 10.0214C74.334 10.0214 75.1066 9.27374 75.1066 8.32676C75.1066 7.67882 74.7577 7.23025 74.5085 7.03088C73.3871 6.0839 71.9666 5.53564 69.948 5.53564C65.861 5.53564 62.9453 8.67565 62.9453 12.4885V12.5383C62.9453 16.3512 65.8859 19.4414 69.8982 19.4414Z" fill="#828282"/>
<path d="M80.5886 23.2044C82.8564 23.2044 83.9778 22.1827 85.0992 19.4663L89.7594 8.27696C89.8342 8.10252 89.9339 7.67887 89.9339 7.37982C89.9339 6.383 89.1115 5.63538 88.1396 5.63538C87.1677 5.63538 86.6194 6.28331 86.3204 7.08077L83.5292 14.8311L80.6385 7.05585C80.3145 6.15871 79.7662 5.63538 78.8192 5.63538C77.7726 5.63538 76.9502 6.383 76.9502 7.45458C76.9502 7.70379 77.0499 8.0776 77.1496 8.32681L81.71 18.8932L81.5854 19.1922C81.2365 19.8651 80.9126 19.9897 80.2397 19.9897C79.9656 19.9897 79.7662 19.9398 79.4423 19.8401C79.2927 19.7903 79.1183 19.7405 78.8192 19.7405C78.0467 19.7405 77.324 20.3635 77.324 21.2855C77.324 22.2076 77.9719 22.6562 78.5202 22.8555C79.1432 23.0798 79.7413 23.2044 80.5886 23.2044Z" fill="#828282"/>
</svg>
