<svg width="77" height="19" viewBox="0 0 77 19" fill="none" xmlns="http://www.w3.org/2000/svg">
<path d="M5.79258 16.373C5.79258 17.4445 6.63988 18.2919 7.71147 18.2919C8.78306 18.2919 9.63036 17.4445 9.63036 16.373V4.23661H13.3186C14.2905 4.23661 15.088 3.43915 15.088 2.46724C15.088 1.49534 14.2905 0.697876 13.3186 0.697876H2.10433C1.13242 0.697876 0.334961 1.49534 0.334961 2.46724C0.334961 3.43915 1.13242 4.23661 2.10433 4.23661H5.79258V16.373Z" fill="#828282"/>
<path fill-rule="evenodd" clip-rule="evenodd" d="M28.9444 15.7001C28.9444 16.1985 28.7202 16.5723 28.446 16.8215C27.2748 17.8183 25.7546 18.4414 23.8108 18.4414C19.7986 18.4414 16.833 15.6253 16.833 11.5383V11.4885C16.833 7.67565 19.5494 4.53564 23.437 4.53564C27.8978 4.53564 29.8665 8.19898 29.8665 10.9652C29.8665 12.0617 29.094 12.7844 28.0971 12.7844H20.596C20.9698 14.5039 22.166 15.401 23.8606 15.401C24.9073 15.401 25.7795 15.0771 26.5521 14.5039C26.8262 14.3045 27.0754 14.2049 27.4741 14.2049C28.3214 14.2049 28.9444 14.8528 28.9444 15.7001ZM23.437 7.57596C21.867 7.57596 20.8452 8.69739 20.5462 10.4169H26.253C26.0287 8.72231 25.0319 7.57596 23.437 7.57596Z" fill="#828282"/>
<path d="M32.7568 16.3979C32.7568 17.4446 33.6041 18.2919 34.6508 18.2919C35.6975 18.2919 36.5448 17.4446 36.5448 16.3979V12.8592C36.5448 10.1678 37.6164 8.69744 39.5353 8.24887C40.3078 8.07442 40.9557 7.47633 40.9557 6.4795C40.9557 5.40792 40.2829 4.63538 39.1116 4.63538C37.9902 4.63538 37.093 5.83157 36.5448 7.12744V6.52935C36.5448 5.48268 35.6975 4.63538 34.6508 4.63538C33.6041 4.63538 32.7568 5.48268 32.7568 6.52935V16.3979Z" fill="#828282"/>
<path d="M43.1738 16.3979C43.1738 17.4445 44.0211 18.2918 45.0678 18.2918C46.1145 18.2918 46.9618 17.4445 46.9618 16.3979V10.691C46.9618 8.89676 47.834 7.97469 49.2545 7.97469C50.6749 7.97469 51.4724 8.89676 51.4724 10.691V16.3979C51.4724 17.4445 52.3197 18.2918 53.3664 18.2918C54.413 18.2918 55.2603 17.4445 55.2603 16.3979V10.691C55.2603 8.89676 56.1326 7.97469 57.553 7.97469C58.9735 7.97469 59.771 8.89676 59.771 10.691V16.3979C59.771 17.4445 60.6183 18.2918 61.6649 18.2918C62.7116 18.2918 63.5589 17.4445 63.5589 16.3979V9.44501C63.5589 6.23025 61.8643 4.53564 59.0483 4.53564C57.2291 4.53564 55.8335 5.28326 54.6622 6.6539C53.9645 5.30818 52.6437 4.53564 50.8992 4.53564C48.9803 4.53564 47.834 5.55739 46.9618 6.67882V6.5293C46.9618 5.48263 46.1145 4.63533 45.0678 4.63533C44.0211 4.63533 43.1738 5.48263 43.1738 6.5293V16.3979Z" fill="#828282"/>
<path d="M71.533 18.3916C74.4238 18.3916 76.6418 17.0459 76.6418 14.0803V14.0305C76.6418 11.5883 74.4737 10.6911 72.6046 10.0681C71.1592 9.5697 69.8883 9.22081 69.8883 8.47319V8.42335C69.8883 7.90002 70.3618 7.50129 71.2838 7.50129C72.0813 7.50129 73.103 7.82526 74.1746 8.34859C74.4238 8.47319 74.5983 8.52303 74.8724 8.52303C75.7197 8.52303 76.3926 7.8751 76.3926 7.02779C76.3926 6.37986 76.0437 5.88144 75.4954 5.60732C74.1995 4.95938 72.7541 4.58557 71.3586 4.58557C68.6672 4.58557 66.4741 6.10573 66.4741 8.82208V8.87192C66.4741 11.4637 68.5924 12.3359 70.4614 12.8841C71.9318 13.3327 73.2276 13.6068 73.2276 14.4292V14.4791C73.2276 15.0772 72.7292 15.4759 71.6327 15.4759C70.5611 15.4759 69.2902 15.0772 68.0192 14.2797C67.8199 14.1551 67.5457 14.0803 67.2716 14.0803C66.4243 14.0803 65.7764 14.7283 65.7764 15.5756C65.7764 16.1737 66.1003 16.6222 66.4991 16.8714C68.1189 17.9181 69.8883 18.3916 71.533 18.3916Z" fill="#828282"/>
</svg>
