<?xml version="1.0" encoding="UTF-8"?>
<svg width="142px" height="19px" viewBox="0 0 142 19" version="1.1" xmlns="http://www.w3.org/2000/svg" xmlns:xlink="http://www.w3.org/1999/xlink">
    <title>TM</title>
    <g id="Page-1" stroke="none" stroke-width="1" fill="none" fill-rule="evenodd">
        <g id="Footer-page" transform="translate(-888, -1992)" fill="#FFB5A7" fill-rule="nonzero" stroke="#FFB5A7" stroke-width="0.3">
            <g id="TM" transform="translate(888.45, 1992.9757)">
                <path d="M21.924,12.906 C21.924,13.554 22.428,13.95 23.112,13.95 L30.258,13.95 C30.798,13.95 31.23,13.518 31.23,12.978 C31.23,12.438 30.798,12.006 30.258,12.006 L25.146,12.006 L27.738,9.846 C29.97,8.028 31.014,6.948 31.014,4.968 L31.014,4.932 C31.014,2.682 29.322,1.17 26.856,1.17 C24.876,1.17 23.706,1.926 22.68,3.204 C22.518,3.402 22.428,3.654 22.428,3.888 C22.428,4.446 22.878,4.896 23.436,4.896 C23.796,4.896 24.048,4.734 24.21,4.554 C24.984,3.618 25.686,3.15 26.694,3.15 C27.846,3.15 28.728,3.87 28.728,5.112 C28.728,6.246 28.098,7.056 26.37,8.514 L22.5,11.808 C22.122,12.114 21.924,12.474 21.924,12.906 Z M38.682,14.166 C41.994,14.166 44.19,11.25 44.19,7.65 L44.19,7.614 C44.19,4.014 42.012,1.134 38.718,1.134 C35.406,1.134 33.21,4.05 33.21,7.65 L33.21,7.686 C33.21,11.286 35.37,14.166 38.682,14.166 Z M38.718,12.168 C36.756,12.168 35.496,10.134 35.496,7.65 L35.496,7.614 C35.496,5.112 36.738,3.132 38.682,3.132 C40.626,3.132 41.904,5.166 41.904,7.65 L41.904,7.686 C41.904,10.152 40.68,12.168 38.718,12.168 Z M45.99,12.906 C45.99,13.554 46.494,13.95 47.178,13.95 L54.324,13.95 C54.864,13.95 55.296,13.518 55.296,12.978 C55.296,12.438 54.864,12.006 54.324,12.006 L49.212,12.006 L51.804,9.846 C54.036,8.028 55.08,6.948 55.08,4.968 L55.08,4.932 C55.08,2.682 53.388,1.17 50.922,1.17 C48.942,1.17 47.772,1.926 46.746,3.204 C46.584,3.402 46.494,3.654 46.494,3.888 C46.494,4.446 46.944,4.896 47.502,4.896 C47.862,4.896 48.114,4.734 48.276,4.554 C49.05,3.618 49.752,3.15 50.76,3.15 C51.912,3.15 52.794,3.87 52.794,5.112 C52.794,6.246 52.164,7.056 50.436,8.514 L46.566,11.808 C46.188,12.114 45.99,12.474 45.99,12.906 Z M61.794,14.166 C64.494,14.166 66.402,12.456 66.402,9.9 L66.402,9.864 C66.402,7.2 64.476,5.904 62.01,5.904 C61.164,5.904 60.606,6.048 60.012,6.264 L60.21,3.312 L64.944,3.312 C65.484,3.312 65.934,2.88 65.934,2.34 C65.934,1.8 65.484,1.35 64.944,1.35 L59.238,1.35 C58.698,1.35 58.266,1.764 58.23,2.34 L57.96,6.876 C57.942,7.29 58.068,7.614 58.392,7.848 C58.824,8.154 59.094,8.28 59.436,8.28 C59.778,8.28 60.372,7.848 61.596,7.848 C63.126,7.848 64.206,8.64 64.206,9.936 L64.206,9.972 C64.206,11.304 63.18,12.15 61.758,12.15 C60.768,12.15 59.886,11.79 59.022,11.088 C58.842,10.944 58.644,10.872 58.374,10.872 C57.798,10.872 57.312,11.358 57.312,11.934 C57.312,12.294 57.492,12.582 57.762,12.798 C58.788,13.59 60.084,14.166 61.794,14.166 Z M74.61,12.942 C74.61,13.554 75.096,14.04 75.726,14.04 C76.338,14.04 76.824,13.554 76.824,12.942 L76.824,2.358 C76.824,1.746 76.338,1.26 75.726,1.26 C75.096,1.26 74.61,1.746 74.61,2.358 L74.61,12.942 Z M79.938,12.96 C79.938,13.572 80.424,14.04 81.018,14.04 C81.63,14.04 82.116,13.572 82.116,12.96 L82.116,8.586 C82.116,7.11 82.998,6.228 84.258,6.228 C85.554,6.228 86.292,7.074 86.292,8.55 L86.292,12.96 C86.292,13.572 86.778,14.04 87.39,14.04 C88.002,14.04 88.47,13.572 88.47,12.96 L88.47,7.884 C88.47,5.688 87.228,4.248 85.086,4.248 C83.61,4.248 82.728,5.022 82.116,5.904 L82.116,5.436 C82.116,4.824 81.63,4.338 81.018,4.338 C80.406,4.338 79.938,4.824 79.938,5.436 L79.938,12.96 Z M91.098,15.84 C91.098,16.452 91.584,16.92 92.178,16.92 C92.79,16.92 93.276,16.452 93.276,15.84 L93.276,12.474 C93.942,13.356 94.932,14.148 96.516,14.148 C98.766,14.148 100.926,12.366 100.926,9.216 L100.926,9.18 C100.926,6.012 98.748,4.248 96.516,4.248 C94.968,4.248 93.978,5.04 93.276,6.03 L93.276,5.436 C93.276,4.824 92.79,4.338 92.178,4.338 C91.566,4.338 91.098,4.824 91.098,5.436 L91.098,15.84 Z M95.994,12.258 C94.518,12.258 93.222,11.034 93.222,9.216 L93.222,9.18 C93.222,7.362 94.518,6.138 95.994,6.138 C97.47,6.138 98.712,7.344 98.712,9.18 L98.712,9.216 C98.712,11.088 97.488,12.258 95.994,12.258 Z M105.912,14.148 C107.37,14.148 108.36,13.536 109.008,12.762 L109.008,13.122 C109.008,13.608 109.44,14.04 110.07,14.04 C110.664,14.04 111.132,13.59 111.132,12.996 L111.132,8.316 C111.132,7.074 110.808,6.066 110.106,5.382 C109.44,4.698 108.378,4.32 106.956,4.32 C105.714,4.32 104.796,4.536 103.896,4.878 C103.572,5.004 103.302,5.346 103.302,5.742 C103.302,6.246 103.716,6.642 104.22,6.642 C104.328,6.642 104.436,6.624 104.562,6.588 C105.156,6.354 105.84,6.21 106.668,6.21 C108.198,6.21 109.026,6.93 109.026,8.28 L109.026,8.514 C108.288,8.28 107.532,8.118 106.47,8.118 C104.148,8.118 102.546,9.126 102.546,11.178 L102.546,11.214 C102.546,13.122 104.13,14.148 105.912,14.148 Z M106.524,12.564 C105.48,12.564 104.67,12.042 104.67,11.124 L104.67,11.088 C104.67,10.098 105.498,9.504 106.902,9.504 C107.766,9.504 108.504,9.666 109.062,9.882 L109.062,10.53 C109.062,11.736 107.964,12.564 106.524,12.564 Z M116.928,14.112 C117.504,14.112 117.954,14.022 118.422,13.86 C118.728,13.734 118.998,13.41 118.998,13.014 C118.998,12.51 118.566,12.114 118.08,12.114 C118.008,12.114 117.792,12.168 117.54,12.168 C116.802,12.168 116.37,11.826 116.37,10.98 L116.37,6.318 L118.08,6.318 C118.602,6.318 119.034,5.904 119.034,5.382 C119.034,4.86 118.602,4.446 118.08,4.446 L116.37,4.446 L116.37,2.826 C116.37,2.232 115.884,1.746 115.29,1.746 C114.678,1.746 114.192,2.232 114.192,2.826 L114.192,4.446 L113.832,4.446 C113.31,4.446 112.896,4.86 112.896,5.382 C112.896,5.904 113.31,6.318 113.832,6.318 L114.192,6.318 L114.192,11.322 C114.192,13.41 115.326,14.112 116.928,14.112 Z M121.14,12.96 C121.14,13.572 121.626,14.04 122.22,14.04 C122.832,14.04 123.318,13.572 123.318,12.96 L123.318,8.586 C123.318,7.11 124.2,6.228 125.46,6.228 C126.756,6.228 127.494,7.074 127.494,8.55 L127.494,12.96 C127.494,13.572 127.98,14.04 128.592,14.04 C129.204,14.04 129.672,13.572 129.672,12.96 L129.672,7.884 C129.672,5.688 128.43,4.248 126.288,4.248 C124.812,4.248 123.93,5.022 123.318,5.904 L123.318,1.8 C123.318,1.206 122.832,0.72 122.22,0.72 C121.608,0.72 121.14,1.206 121.14,1.8 L121.14,12.96 Z M134.028,16.884 C135.558,16.884 136.422,16.164 137.232,14.22 L140.706,5.886 C140.742,5.778 140.796,5.544 140.796,5.364 C140.796,4.788 140.328,4.338 139.752,4.338 C139.194,4.338 138.888,4.716 138.708,5.166 L136.332,11.484 L133.776,5.166 C133.578,4.662 133.272,4.338 132.714,4.338 C132.102,4.338 131.634,4.788 131.634,5.4 C131.634,5.544 131.688,5.76 131.76,5.922 L135.288,13.806 L135.216,14.004 C134.856,14.742 134.514,15.012 133.866,15.012 C133.56,15.012 133.362,14.958 133.11,14.886 C133.002,14.85 132.894,14.814 132.714,14.814 C132.246,14.814 131.832,15.174 131.832,15.714 C131.832,16.236 132.192,16.506 132.516,16.614 C132.966,16.794 133.416,16.884 134.028,16.884 Z M7.83,15.75 C12.195,15.75 15.66,12.15 15.66,7.875 L15.66,7.83 C15.66,3.555 12.24,0 7.83,0 C3.465,0 -5.68434189e-14,3.6 -5.68434189e-14,7.875 L-5.68434189e-14,7.92 C-5.68434189e-14,12.195 3.42,15.75 7.83,15.75 Z M7.83,14.895 C3.87,14.895 0.9,11.745 0.9,7.92 L0.9,7.875 C0.9,4.05 3.915,0.855 7.83,0.855 C11.79,0.855 14.76,4.005 14.76,7.83 L14.76,7.875 C14.76,11.7 11.745,14.895 7.83,14.895 Z M4.41,10.89 C4.41,11.52 4.95,12.06 5.58,12.06 C6.21,12.06 6.75,11.52 6.75,10.89 L6.75,9.405 L7.83,9.405 L9.585,11.61 C9.81,11.88 10.08,12.06 10.485,12.06 C11.115,12.06 11.655,11.565 11.655,10.935 C11.655,10.62 11.565,10.395 11.34,10.125 L10.305,8.91 C11.25,8.46 11.835,7.605 11.835,6.435 C11.835,4.5 10.44,3.6 8.37,3.6 L5.58,3.6 C4.95,3.6 4.41,4.14 4.41,4.77 L4.41,10.89 Z M6.75,7.56 L6.75,5.58 L8.235,5.58 C9.045,5.58 9.495,5.94 9.495,6.57 C9.495,7.155 9.045,7.56 8.235,7.56 L6.75,7.56 Z" id="Combined-Shape"></path>
            </g>
        </g>
    </g>
</svg>