<?xml version="1.0" encoding="UTF-8"?>
<svg id="Layer_1" data-name="Layer 1" xmlns="http://www.w3.org/2000/svg" version="1.1" viewBox="0 0 142 19">
  <defs>
    <style>
      .cls-1 {
        fill: #ffb5a7;
        stroke: #ffb5a7;
        stroke-width: .3px;
      }
    </style>
  </defs>
  <g id="Page-1">
    <g id="Footer-page">
      <g id="TM">
        <path id="Combined-Shape" class="cls-1" d="M22.4,13.9c0,.6.5,1,1.2,1h7.1c.5,0,1-.4,1-1s-.4-1-1-1h-5.1l2.6-2.2c2.2-1.8,3.3-2.9,3.3-4.9h0c0-2.3-1.7-3.8-4.2-3.8s-3.2.8-4.2,2c-.2.2-.3.5-.3.7,0,.6.5,1,1,1s.6-.2.8-.3c.8-.9,1.5-1.4,2.5-1.4s2,.7,2,2-.6,1.9-2.4,3.4l-3.9,3.3c-.4.3-.6.7-.6,1.1ZM39.1,15.1c3.3,0,5.5-2.9,5.5-6.5h0c0-3.6-2.2-6.5-5.5-6.5s-5.5,2.9-5.5,6.5h0c0,3.6,2.2,6.5,5.5,6.5ZM39.2,13.1c-2,0-3.2-2-3.2-4.5h0c0-2.5,1.2-4.5,3.2-4.5s3.2,2,3.2,4.5h0c0,2.5-1.2,4.5-3.2,4.5ZM46.4,13.9c0,.6.5,1,1.2,1h7.1c.5,0,1-.4,1-1s-.4-1-1-1h-5.1l2.6-2.2c2.2-1.8,3.3-2.9,3.3-4.9h0c0-2.3-1.7-3.8-4.2-3.8s-3.2.8-4.2,2c-.2.2-.3.5-.3.7,0,.6.5,1,1,1s.6-.2.8-.3c.8-.9,1.5-1.4,2.5-1.4s2,.7,2,2-.6,1.9-2.4,3.4l-3.9,3.3c-.4.3-.6.7-.6,1.1ZM75.1,13.9c0,.6.5,1.1,1.1,1.1s1.1-.5,1.1-1.1V3.3c0-.6-.5-1.1-1.1-1.1s-1.1.5-1.1,1.1v10.6ZM80.4,13.9c0,.6.5,1.1,1.1,1.1s1.1-.5,1.1-1.1v-4.4c0-1.5.9-2.4,2.1-2.4s2,.8,2,2.3v4.4c0,.6.5,1.1,1.1,1.1s1.1-.5,1.1-1.1v-5.1c0-2.2-1.2-3.6-3.4-3.6s-2.4.8-3,1.7v-.5c0-.6-.5-1.1-1.1-1.1s-1.1.5-1.1,1.1v7.5ZM91.5,16.8c0,.6.5,1.1,1.1,1.1s1.1-.5,1.1-1.1v-3.4c.7.9,1.7,1.7,3.2,1.7,2.2,0,4.4-1.8,4.4-4.9h0c0-3.2-2.2-5-4.4-5s-2.5.8-3.2,1.8v-.6c0-.6-.5-1.1-1.1-1.1s-1.1.5-1.1,1.1v10.4ZM96.4,13.2c-1.5,0-2.8-1.2-2.8-3h0c0-1.9,1.3-3.1,2.8-3.1s2.7,1.2,2.7,3h0c0,1.9-1.2,3.1-2.7,3.1ZM106.4,15.1c1.5,0,2.4-.6,3.1-1.4v.4c0,.5.4.9,1.1.9s1.1-.4,1.1-1v-4.7c0-1.2-.3-2.2-1-2.9-.7-.7-1.7-1.1-3.2-1.1s-2.2.2-3.1.6c-.3.1-.6.5-.6.9s.4.9.9.9.2,0,.3,0c.6-.2,1.3-.4,2.1-.4,1.5,0,2.4.7,2.4,2.1v.2c-.7-.2-1.5-.4-2.6-.4-2.3,0-3.9,1-3.9,3.1h0c0,1.9,1.6,3,3.4,3ZM107,13.5c-1,0-1.9-.5-1.9-1.4h0c0-1,.8-1.6,2.2-1.6s1.6.2,2.2.4v.6c0,1.2-1.1,2-2.5,2ZM117.4,15.1c.6,0,1,0,1.5-.3.3-.1.6-.4.6-.8s-.4-.9-.9-.9-.3,0-.5,0c-.7,0-1.2-.3-1.2-1.2v-4.7h1.7c.5,0,1-.4,1-.9s-.4-.9-1-.9h-1.7v-1.6c0-.6-.5-1.1-1.1-1.1s-1.1.5-1.1,1.1v1.6h-.4c-.5,0-.9.4-.9.9s.4.9.9.9h.4v5c0,2.1,1.1,2.8,2.7,2.8ZM121.6,13.9c0,.6.5,1.1,1.1,1.1s1.1-.5,1.1-1.1v-4.4c0-1.5.9-2.4,2.1-2.4s2,.8,2,2.3v4.4c0,.6.5,1.1,1.1,1.1s1.1-.5,1.1-1.1v-5.1c0-2.2-1.2-3.6-3.4-3.6s-2.4.8-3,1.7V2.8c0-.6-.5-1.1-1.1-1.1s-1.1.5-1.1,1.1v11.2ZM134.5,17.9c1.5,0,2.4-.7,3.2-2.7l3.5-8.3c0-.1,0-.3,0-.5,0-.6-.5-1-1-1s-.9.4-1,.8l-2.4,6.3-2.6-6.3c-.2-.5-.5-.8-1.1-.8s-1.1.5-1.1,1.1,0,.4.1.5l3.5,7.9v.2c-.4.7-.8,1-1.4,1s-.5,0-.8-.1c-.1,0-.2,0-.4,0-.5,0-.9.4-.9.9s.4.8.7.9c.4.2.9.3,1.5.3ZM8.3,16.7c4.4,0,7.8-3.6,7.8-7.9h0c0-4.3-3.4-7.9-7.8-7.9S.5,4.6.5,8.9H.5c0,4.3,3.4,7.9,7.8,7.9ZM8.3,15.9c-4,0-6.9-3.2-6.9-7h0c0-3.9,3-7.1,6.9-7.1s6.9,3.2,6.9,7h0c0,3.9-3,7.1-6.9,7.1ZM4.9,11.9c0,.6.5,1.2,1.2,1.2s1.2-.5,1.2-1.2v-1.5h1.1l1.8,2.2c.2.3.5.5.9.5.6,0,1.2-.5,1.2-1.1s0-.5-.3-.8l-1-1.2c.9-.4,1.5-1.3,1.5-2.5,0-1.9-1.4-2.8-3.5-2.8h-2.8c-.6,0-1.2.5-1.2,1.2v6.1ZM7.2,8.5v-2h1.5c.8,0,1.3.4,1.3,1s-.4,1-1.3,1h-1.5Z"/>
      </g>
    </g>
  </g>
  <path class="cls-1" d="M63.1,6.9c-1.5,0-2.4.6-3,1.3.1-2.3,1.2-4,3-4s1.5.3,2.2.7c.2,0,.4.2.6.2.6,0,1.1-.5,1.1-1s-.2-.7-.6-1c-.8-.6-1.9-.9-3.2-.9-3.6,0-5.4,3-5.4,6.9h0c0,2.6.6,3.9,1.5,4.8.8.8,2,1.3,3.5,1.3,2.6,0,4.7-1.8,4.7-4.3h0c0-2.6-2-4-4.4-4ZM65.2,11c0,1.3-1,2.3-2.5,2.3s-2.6-1-2.6-2.2h0c0-1.2,1-2.3,2.6-2.3s2.6.9,2.6,2.2h0Z"/>
</svg>