<svg xmlns="http://www.w3.org/2000/svg" xmlns:xlink="http://www.w3.org/1999/xlink" width="98" height="20" viewBox="0 0 98 20">
  <defs>
    <clipPath id="clip-path">
      <rect id="Rectangle_10" data-name="Rectangle 10" width="98" height="20" transform="translate(2312 -597)" fill="#fff"/>
    </clipPath>
  </defs>
  <g id="Mask_Group_3" data-name="Mask Group 3" transform="translate(-2312 597)" clip-path="url(#clip-path)">
    <path id="Union_1" data-name="Union 1" d="M75.285,11.139v-.05a6.858,6.858,0,0,1,7-6.953,6.686,6.686,0,0,1,4.56,1.5,1.678,1.678,0,0,1,.6,1.3,1.7,1.7,0,0,1-1.72,1.695,1.78,1.78,0,0,1-1.1-.374A3.613,3.613,0,0,0,82.263,7.4a3.413,3.413,0,0,0-3.239,3.639v.049a3.422,3.422,0,0,0,3.388,3.688,3.837,3.837,0,0,0,2.492-.923,1.766,1.766,0,0,1,1.022-.348,1.607,1.607,0,0,1,1.047,2.816,6.572,6.572,0,0,1-4.735,1.719A6.82,6.82,0,0,1,75.285,11.139Zm-57.168,0v-.05a7.012,7.012,0,0,1,7.252-6.953,6.943,6.943,0,0,1,7.2,6.9v.049a7.011,7.011,0,0,1-7.252,6.953A6.943,6.943,0,0,1,18.117,11.139Zm3.739-.1v.049a3.549,3.549,0,0,0,3.514,3.688,3.422,3.422,0,0,0,3.464-3.639v-.05A3.549,3.549,0,0,0,25.319,7.4,3.421,3.421,0,0,0,21.856,11.04ZM0,9.071v-.05A8.866,8.866,0,0,1,9.1,0a9.234,9.234,0,0,1,5.831,1.769,1.919,1.919,0,0,1,.748,1.52,1.873,1.873,0,0,1-1.895,1.869,2.011,2.011,0,0,1-1.146-.374A5.74,5.74,0,0,0,9.071,3.539,5.169,5.169,0,0,0,4.012,8.971v.05A5.181,5.181,0,0,0,9.071,14.5a5.6,5.6,0,0,0,3.788-1.371,1.778,1.778,0,1,1,2.292,2.717,8.764,8.764,0,0,1-6.2,2.192A8.805,8.805,0,0,1,0,9.071Zm60.383,4.835v-.05c0-2.915,2.218-4.261,5.383-4.261a9.489,9.489,0,0,1,3.264.548V9.919c0-1.571-.972-2.443-2.866-2.443a8.691,8.691,0,0,0-2.616.373,1.611,1.611,0,0,1-.549.1A1.543,1.543,0,0,1,61.43,6.4a1.57,1.57,0,0,1,1.021-1.47,11.616,11.616,0,0,1,4.262-.7,6.164,6.164,0,0,1,4.511,1.5,5.819,5.819,0,0,1,1.445,4.261v6.08a1.819,1.819,0,0,1-1.844,1.819,1.7,1.7,0,0,1-1.819-1.57V16.3a5.138,5.138,0,0,1-4.037,1.695C62.451,17.993,60.383,16.547,60.383,13.906Zm3.663-.2v.05c0,1.022.848,1.62,2.069,1.62,1.769,0,2.965-.972,2.965-2.343v-.673a5.88,5.88,0,0,0-2.417-.5C65.043,11.862,64.046,12.51,64.046,13.706Zm26.74.249V7.626h-.125a1.62,1.62,0,0,1,0-3.24h.125V2.716a1.894,1.894,0,0,1,3.788,0v1.67h1.67a1.62,1.62,0,1,1,0,3.24h-1.67v5.707c0,.872.374,1.3,1.22,1.3.125,0,.374-.025.449-.025a1.579,1.579,0,0,1,1.57,1.571,1.541,1.541,0,0,1-.972,1.42,5.6,5.6,0,0,1-2.168.373C92.355,17.968,90.786,17.046,90.786,13.955Zm-39.325,0V7.626h-.124a1.62,1.62,0,1,1,0-3.24h.124V2.716a1.894,1.894,0,0,1,3.788,0v1.67h1.669a1.62,1.62,0,0,1,0,3.24H55.249v5.707c0,.872.373,1.3,1.221,1.3.124,0,.374-.025.448-.025a1.579,1.579,0,0,1,1.57,1.571,1.543,1.543,0,0,1-.972,1.42,5.6,5.6,0,0,1-2.168.373C53.032,17.968,51.461,17.046,51.461,13.955ZM43.761,16V10.292c0-1.795-.848-2.716-2.293-2.716S39.1,8.5,39.1,10.292V16a1.894,1.894,0,0,1-3.788,0V6.131a1.894,1.894,0,1,1,3.788,0V6.28a4.726,4.726,0,0,1,3.912-2.144c2.866,0,4.536,1.894,4.536,4.96V16a1.894,1.894,0,0,1-3.788,0Z" transform="translate(2312 -596)" fill="#828282"/>
  </g>
</svg>
