<svg xmlns="http://www.w3.org/2000/svg" xmlns:xlink="http://www.w3.org/1999/xlink" width="90" height="20" viewBox="0 0 90 20">
  <defs>
    <clipPath id="clip-path">
      <rect id="Rectangle_11" data-name="Rectangle 11" width="90" height="20" transform="translate(2486 -582)" fill="#fff"/>
    </clipPath>
  </defs>
  <g id="Mask_Group_4" data-name="Mask Group 4" transform="translate(-2486 582)" clip-path="url(#clip-path)">
    <path id="Union_2" data-name="Union 2" d="M71.54,19.061a1.494,1.494,0,0,1-1.09-1.43,1.376,1.376,0,0,1,1.363-1.407,1.618,1.618,0,0,1,.568.091,2.252,2.252,0,0,0,.726.136,1.125,1.125,0,0,0,1.226-.726l.113-.272L70.292,5.831a2.521,2.521,0,0,1-.182-.795,1.635,1.635,0,0,1,1.7-1.657,1.67,1.67,0,0,1,1.658,1.294l2.633,7.08L78.646,4.7A1.751,1.751,0,0,1,80.3,3.38a1.6,1.6,0,0,1,1.634,1.588,2.592,2.592,0,0,1-.159.817l-4.245,10.19c-1.021,2.473-2.043,3.4-4.109,3.4A5.194,5.194,0,0,1,71.54,19.061Zm-14.189-8.4v-.045a6.247,6.247,0,0,1,6.38-6.332A6.092,6.092,0,0,1,67.885,5.65a1.528,1.528,0,0,1,.545,1.181,1.55,1.55,0,0,1-1.567,1.543,1.623,1.623,0,0,1-1-.34,3.29,3.29,0,0,0-2.156-.771,3.108,3.108,0,0,0-2.952,3.313v.046a3.117,3.117,0,0,0,3.088,3.358,3.5,3.5,0,0,0,2.271-.84,1.606,1.606,0,0,1,.931-.318A1.464,1.464,0,0,1,68,15.386a5.986,5.986,0,0,1-4.314,1.566A6.213,6.213,0,0,1,57.351,10.666ZM36.19,16.929a2.113,2.113,0,0,1-1.952-1.5l-3.723-8.6a2.289,2.289,0,0,1-.182-.84,1.694,1.694,0,0,1,1.68-1.612,1.664,1.664,0,0,1,1.679,1.226L36.3,12.663l2.657-7.1a1.672,1.672,0,0,1,1.612-1.181A1.633,1.633,0,0,1,42.23,6.014a2.44,2.44,0,0,1-.182.817l-3.723,8.6a2.145,2.145,0,0,1-1.953,1.5Zm7.583-3.744v-.046c0-2.655,2.021-3.88,4.9-3.88a8.673,8.673,0,0,1,2.974.5v-.2c0-1.43-.886-2.225-2.612-2.225a7.909,7.909,0,0,0-2.383.341,1.477,1.477,0,0,1-.5.091,1.406,1.406,0,0,1-1.431-1.408,1.428,1.428,0,0,1,.931-1.338,10.591,10.591,0,0,1,3.882-.636,5.619,5.619,0,0,1,4.109,1.362,5.3,5.3,0,0,1,1.318,3.881V15.16a1.657,1.657,0,0,1-1.68,1.656,1.545,1.545,0,0,1-1.658-1.429v-.023a4.681,4.681,0,0,1-3.677,1.543C45.658,16.906,43.773,15.591,43.773,13.185ZM47.111,13v.046c0,.93.772,1.475,1.885,1.475,1.612,0,2.7-.886,2.7-2.134v-.612a5.348,5.348,0,0,0-2.2-.455C48.019,11.324,47.111,11.914,47.111,13ZM24.452,15.091V6.1a1.726,1.726,0,0,1,3.451,0v8.987a1.726,1.726,0,0,1-3.451,0Zm-9.649,0V6.1a1.725,1.725,0,0,1,3.451,0v.544c.5-1.18,1.317-2.27,2.338-2.27a1.573,1.573,0,0,1,1.68,1.679,1.588,1.588,0,0,1-1.294,1.612c-1.748.409-2.724,1.747-2.724,4.2v3.223a1.725,1.725,0,0,1-3.451,0ZM0,15.069V2.542A1.735,1.735,0,0,1,1.748.794H6.494c3.792,0,6.085,2.247,6.085,5.493v.045c0,3.677-2.861,5.583-6.426,5.583H3.5v3.155a1.734,1.734,0,0,1-1.749,1.747A1.734,1.734,0,0,1,0,15.069ZM3.5,8.8h2.77A2.46,2.46,0,0,0,9.036,6.4V6.354c0-1.566-1.09-2.406-2.838-2.406H3.5ZM24.248,1.657V1.611A1.709,1.709,0,0,1,26.177,0a1.71,1.71,0,0,1,1.931,1.611v.046A1.726,1.726,0,0,1,26.177,3.29,1.725,1.725,0,0,1,24.248,1.657Z" transform="translate(2490 -582)" fill="#828282"/>
  </g>
</svg>
